<svg width="107" height="45" viewBox="0 0 107 45" fill="none" xmlns="http://www.w3.org/2000/svg">
    <path d="M28.992 4.936C29.696 1.672 31.168 0.199997 33.6 0.199997H39.232C42.944 0.199997 44.48 2.76 43.2 6.728L32.192 40.264C31.168 43.464 28.992 45 25.664 45H19.264C15.936 45 13.76 43.464 12.736 40.264L1.728 6.728C0.448 2.76 2.304 0.199997 6.464 0.199997H12.544C14.976 0.199997 16.256 1.736 16.896 5.064L21.184 27.848C21.824 30.472 21.632 32.008 21.696 34.12H23.488C23.552 31.944 23.36 30.472 24.064 27.848L28.992 4.936ZM47.88 5.96C47.88 2.248 49.928 0.199997 53.64 0.199997H56.84C60.552 0.199997 62.6 2.248 62.6 5.96V39.24C62.6 42.952 60.552 45 56.84 45H53.64C49.928 45 47.88 42.952 47.88 39.24V5.96ZM96.22 21.128C104.092 22.344 105.948 25.032 106.076 31.496C105.948 43.08 92.444 44.936 86.108 45H73.18C69.468 45 67.42 42.952 67.42 39.24V5.96C67.42 2.312 69.404 0.327999 72.924 0.199997H84.252C94.748 0.199997 104.092 1.48 103.964 11.208C104.092 16.776 101.724 18.76 96.22 19.912V21.128ZM84.7 34.12C89.5 34.12 90.844 32.392 90.844 29.96C90.844 27.4 89.244 25.8 84.828 25.8H82.14V34.12H84.7ZM82.844 18.056C87.644 18.056 90.844 17.672 90.844 14.6C90.844 11.4 87.9 11.144 86.172 11.144H82.14V18.056H82.844Z" fill="#E4819B"/>
</svg>
